<?xml version="1.0" encoding="utf-8"?>
<!-- Generator: Adobe Illustrator 16.0.0, SVG Export Plug-In . SVG Version: 6.00 Build 0)  -->
<!DOCTYPE svg PUBLIC "-//W3C//DTD SVG 1.1//EN" "http://www.w3.org/Graphics/SVG/1.1/DTD/svg11.dtd">
<svg version="1.1" id="Layer_1" xmlns="http://www.w3.org/2000/svg" xmlns:xlink="http://www.w3.org/1999/xlink" x="0px" y="0px"
	 width="792px" height="612px" viewBox="0 0 792 612" enable-background="new 0 0 792 612" xml:space="preserve">
<path fill="#FFFFFF" stroke="#000000" stroke-miterlimit="10" d="M364.836,442.615c15.49-11.729,26.476-29.072,29.962-49
	c25.861-9.594,45.274-32.425,50.047-60.263c30.096-10.986,51.581-39.863,51.581-73.761c0-25.269-11.952-47.733-30.497-62.092h80.34
	L478.875,80.77l-42.586,73.761l-18.362-31.804l-16.594,28.741L360.516,80.77L293.121,197.5h76.803
	c-15.203,11.771-25.958,28.99-29.343,48.739c-25.97,9.48-45.506,32.291-50.38,60.146C260.307,317.476,239,346.246,239,380
	c0,25.573,12.235,48.283,31.164,62.615h-92.895l-28.205,28.205l28.205,28.205h369l-28.205-28.205l28.205-28.205H364.836z"/>
</svg>
