<?xml version="1.0" encoding="utf-8"?>
<!-- Generator: Adobe Illustrator 16.0.0, SVG Export Plug-In . SVG Version: 6.00 Build 0)  -->
<!DOCTYPE svg PUBLIC "-//W3C//DTD SVG 1.1//EN" "http://www.w3.org/Graphics/SVG/1.1/DTD/svg11.dtd">
<svg version="1.1" id="Layer_1" xmlns="http://www.w3.org/2000/svg" xmlns:xlink="http://www.w3.org/1999/xlink" x="0px" y="0px"
	 width="792px" height="612px" viewBox="0 0 792 612" enable-background="new 0 0 792 612" xml:space="preserve">
<path fill="#FFFFFF" stroke="#000000" stroke-miterlimit="10" d="M364.836,442.615c15.49-11.729,26.476-29.072,29.962-49
	c14.218-5.274,26.492-14.547,35.455-26.456l-0.02,20.235l116.797-67.279l-116.664-67.51l-0.021,20.354
	c-6.409-8.55-14.533-15.73-23.847-21.075V166.5h-79v85.959c-19.319,11.467-33.284,30.98-37.299,53.926
	C260.307,317.476,239,346.246,239,380c0,25.573,12.235,48.283,31.164,62.615h-92.895l-28.205,28.205l28.205,28.205h369
	l-28.205-28.205l28.205-28.205H364.836z"/>
</svg>
