<?xml version="1.0" encoding="utf-8"?>
<!-- Generator: Adobe Illustrator 16.0.0, SVG Export Plug-In . SVG Version: 6.00 Build 0)  -->
<!DOCTYPE svg PUBLIC "-//W3C//DTD SVG 1.1//EN" "http://www.w3.org/Graphics/SVG/1.1/DTD/svg11.dtd">
<svg version="1.1" id="Layer_1" xmlns="http://www.w3.org/2000/svg" xmlns:xlink="http://www.w3.org/1999/xlink" x="0px" y="0px"
	 width="792px" height="612px" viewBox="0 0 792 612" enable-background="new 0 0 792 612" xml:space="preserve">
<path fill="#FFFFFF" stroke="#000000" stroke-miterlimit="10" d="M546.27,442.615H364.836
	c18.061-13.675,30.016-34.979,31.075-59.117c0.03,0,0.059,0.002,0.088,0.002c32.354,0,60.066-19.833,71.672-48H517.5v-101h-86v-79
	h-63v78.039c-27.898,10.594-48.088,36.82-49.862,67.99c-0.38-0.005-0.756-0.029-1.138-0.029c-43.354,0-78.5,35.146-78.5,78.5
	c0,25.573,12.235,48.283,31.164,62.615h-92.895l-28.205,28.205l28.205,28.205h369l-28.205-28.205L546.27,442.615z"/>
</svg>
