<?xml version="1.0" encoding="utf-8"?>
<!-- Generator: Adobe Illustrator 16.0.0, SVG Export Plug-In . SVG Version: 6.00 Build 0)  -->
<!DOCTYPE svg PUBLIC "-//W3C//DTD SVG 1.1//EN" "http://www.w3.org/Graphics/SVG/1.1/DTD/svg11.dtd">
<svg version="1.1" id="Layer_1" xmlns="http://www.w3.org/2000/svg" xmlns:xlink="http://www.w3.org/1999/xlink" x="0px" y="0px"
	 width="792px" height="612px" viewBox="0 0 792 612" enable-background="new 0 0 792 612" xml:space="preserve">
<path fill="#FFFFFF" stroke="#000000" stroke-miterlimit="10" d="M546.27,442.615H418.422
	c11.926-14.826,19.078-33.655,19.078-54.164c0-5.166-0.479-10.217-1.347-15.134l1.347-0.708l49.503,26.025l-9.454-55.122
	l40.049-39.038l-55.346-8.042L437.5,246.28l-24.752,50.152l-46.901,6.815c-4.827-0.835-9.782-1.296-14.848-1.296
	c-47.772,0-86.5,38.728-86.5,86.5c0,20.509,7.152,39.338,19.078,54.164H177.269l-28.205,28.205l28.205,28.205h369l-28.205-28.205
	L546.27,442.615z"/>
</svg>
