<?xml version="1.0" encoding="utf-8"?>
<!-- Generator: Adobe Illustrator 16.0.0, SVG Export Plug-In . SVG Version: 6.00 Build 0)  -->
<!DOCTYPE svg PUBLIC "-//W3C//DTD SVG 1.1//EN" "http://www.w3.org/Graphics/SVG/1.1/DTD/svg11.dtd">
<svg version="1.1" id="Layer_1" xmlns="http://www.w3.org/2000/svg" xmlns:xlink="http://www.w3.org/1999/xlink" x="0px" y="0px"
	 width="792px" height="612px" viewBox="0 0 792 612" enable-background="new 0 0 792 612" xml:space="preserve">
<path fill="#FFFFFF" stroke="#000000" stroke-miterlimit="10" d="M364.836,442.615C383.765,428.283,396,405.573,396,380
	c0-5.285-0.531-10.444-1.526-15.437c16.101-14.376,26.245-35.281,26.245-58.563c0-2.202-0.114-4.375-0.292-6.531
	c3.6-3.289,6.891-6.908,9.827-10.81l-0.02,20.235l116.797-67.279l-116.664-67.51l-0.021,20.354
	c-6.409-8.55-14.533-15.73-23.847-21.075V88h-79v85.959C304.455,187.637,289,212.758,289,241.5c0,2.202,0.114,4.375,0.292,6.531
	c-15.713,14.354-25.573,35.009-25.573,57.969c0,5.285,0.531,10.444,1.526,15.437C249.145,335.813,239,356.718,239,380
	c0,25.573,12.235,48.283,31.164,62.615h-92.895l-28.205,28.205l28.205,28.205h369l-28.205-28.205l28.205-28.205H364.836z"/>
</svg>
