<?xml version="1.0" encoding="utf-8"?>
<!-- Generator: Adobe Illustrator 16.0.0, SVG Export Plug-In . SVG Version: 6.00 Build 0)  -->
<!DOCTYPE svg PUBLIC "-//W3C//DTD SVG 1.1//EN" "http://www.w3.org/Graphics/SVG/1.1/DTD/svg11.dtd">
<svg version="1.1" id="Layer_1" xmlns="http://www.w3.org/2000/svg" xmlns:xlink="http://www.w3.org/1999/xlink" x="0px" y="0px"
	 width="792px" height="612px" viewBox="0 0 792 612" enable-background="new 0 0 792 612" xml:space="preserve">
<path fill="#FFFFFF" stroke="#000000" stroke-miterlimit="10" d="M546.27,442.615H364.836
	c18.061-13.675,30.016-34.979,31.075-59.117c0.03,0,0.059,0.002,0.088,0.002c40.733,0,74.104-31.433,77.235-71.362
	c9.934-4.679,18.702-11.408,25.781-19.638h42.239v-101h-42.239c-7.428-8.635-16.721-15.61-27.261-20.307V97.5h-63v73.693
	c-25.324,11.284-43.466,35.738-45.735,64.668c-25.032,11.792-42.727,36.578-44.383,65.667c-0.38-0.005-0.756-0.029-1.138-0.029
	c-43.354,0-78.5,35.146-78.5,78.5c0,25.573,12.235,48.283,31.164,62.615h-92.895l-28.205,28.205l28.205,28.205h369l-28.205-28.205
	L546.27,442.615z"/>
</svg>
