<?xml version="1.0" encoding="utf-8"?>
<!-- Generator: Adobe Illustrator 16.0.0, SVG Export Plug-In . SVG Version: 6.00 Build 0)  -->
<!DOCTYPE svg PUBLIC "-//W3C//DTD SVG 1.1//EN" "http://www.w3.org/Graphics/SVG/1.1/DTD/svg11.dtd">
<svg version="1.1" id="Layer_1" xmlns="http://www.w3.org/2000/svg" xmlns:xlink="http://www.w3.org/1999/xlink" x="0px" y="0px"
	 width="792px" height="612px" viewBox="0 0 792 612" enable-background="new 0 0 792 612" xml:space="preserve">
<path fill="#FFFFFF" stroke="#000000" stroke-miterlimit="10" d="M364.836,442.615c15.49-11.729,26.476-29.072,29.962-49
	c13.611-5.05,25.427-13.772,34.276-24.955H546.27l-36.18-62.666l16.422-50.542L452.5,201.68l-17.343,12.6L389.5,135.199
	l-67.395,116.73h6.316c-19.794,11.388-34.143,31.148-38.221,54.456C260.307,317.476,239,346.246,239,380
	c0,25.573,12.235,48.283,31.164,62.615h-92.895l-28.205,28.205l28.205,28.205h369l-28.205-28.205l28.205-28.205H364.836z"/>
</svg>
