<?xml version="1.0" encoding="utf-8"?>
<!-- Generator: Adobe Illustrator 16.0.0, SVG Export Plug-In . SVG Version: 6.00 Build 0)  -->
<!DOCTYPE svg PUBLIC "-//W3C//DTD SVG 1.1//EN" "http://www.w3.org/Graphics/SVG/1.1/DTD/svg11.dtd">
<svg version="1.1" id="Layer_1" xmlns="http://www.w3.org/2000/svg" xmlns:xlink="http://www.w3.org/1999/xlink" x="0px" y="0px"
	 width="792px" height="612px" viewBox="0 0 792 612" enable-background="new 0 0 792 612" xml:space="preserve">
<path fill="#FFFFFF" stroke="#000000" stroke-miterlimit="10" d="M418.422,442.615c11.926-14.826,19.078-33.655,19.078-54.164
	c0-0.049-0.004-0.097-0.004-0.146c8.773,2.996,18.172,4.646,27.96,4.646c47.772,0,86.501-38.727,86.501-86.5
	c0-43.386-31.945-79.306-73.597-85.537c2.679-8.342,4.14-17.23,4.14-26.463c0-47.771-38.729-86.5-86.5-86.5
	c-47.772,0-86.5,38.728-86.5,86.5c0,43.387,31.945,79.307,73.597,85.537c-2.679,8.342-4.14,17.23-4.14,26.463
	c0,0.049,0.003,0.097,0.004,0.146c-8.774-2.996-18.172-4.646-27.961-4.646c-1.78,0-3.542,0.071-5.295,0.177
	c-8.408-38.968-43.055-68.176-84.538-68.176c-47.772,0-86.5,38.728-86.5,86.499c0,47.773,38.728,86.5,86.5,86.5
	c1.78,0,3.542-0.07,5.296-0.177c2.882,13.357,8.846,25.562,17.115,35.841H177.269l-28.205,28.205l28.205,28.205h369l-28.205-28.205
	l28.205-28.205H418.422z"/>
</svg>
