<?xml version="1.0" encoding="utf-8"?>
<!-- Generator: Adobe Illustrator 16.0.0, SVG Export Plug-In . SVG Version: 6.00 Build 0)  -->
<!DOCTYPE svg PUBLIC "-//W3C//DTD SVG 1.1//EN" "http://www.w3.org/Graphics/SVG/1.1/DTD/svg11.dtd">
<svg version="1.1" id="Layer_1" xmlns="http://www.w3.org/2000/svg" xmlns:xlink="http://www.w3.org/1999/xlink" x="0px" y="0px"
	 width="792px" height="612px" viewBox="0 0 792 612" enable-background="new 0 0 792 612" xml:space="preserve">
<path fill="#FFFFFF" stroke="#000000" stroke-miterlimit="10" d="M546.269,442.615H418.422c0.295-0.367,0.579-0.743,0.868-1.115
	h-1.38c8.687-13.226,13.756-29.039,13.756-46.045c46.393,0,84-37.607,84-84c0-15.305-4.113-29.641-11.266-41.999
	c7.152-12.358,11.266-26.694,11.266-42c0-46.391-37.607-84-84-84c-36.034,0-66.757,22.695-78.685,54.566
	c-8.566-2.945-17.749-4.567-27.315-4.567c-46.392,0-84,37.608-84,84c0,29.081,14.781,54.705,37.236,69.783
	c-9.589,13.649-15.236,30.269-15.236,48.217c0,17.482,5.345,33.715,14.484,47.16H177.269l-28.205,28.205l28.205,28.205h369
	l-28.204-28.205L546.269,442.615z"/>
</svg>
