<?xml version="1.0" encoding="utf-8"?>
<!-- Generator: Adobe Illustrator 16.0.0, SVG Export Plug-In . SVG Version: 6.00 Build 0)  -->
<!DOCTYPE svg PUBLIC "-//W3C//DTD SVG 1.1//EN" "http://www.w3.org/Graphics/SVG/1.1/DTD/svg11.dtd">
<svg version="1.1" id="Layer_1" xmlns="http://www.w3.org/2000/svg" xmlns:xlink="http://www.w3.org/1999/xlink" x="0px" y="0px"
	 width="792px" height="612px" viewBox="0 0 792 612" enable-background="new 0 0 792 612" xml:space="preserve">
<path fill="#FFFFFF" stroke="#000000" stroke-miterlimit="10" d="M459.77,428.773c47.771,0,86.5-38.727,86.5-86.5
	c0-1.559-0.046-3.106-0.127-4.646c3.741-9.675,5.814-20.181,5.814-31.176c0-43.386-31.945-79.306-73.597-85.537
	c2.679-8.342,4.14-17.23,4.14-26.463c0-47.771-38.729-86.5-86.5-86.5c-47.772,0-86.5,38.728-86.5,86.5
	c0,43.387,31.945,79.307,73.597,85.537c-2.679,8.342-4.14,17.23-4.14,26.463c0,0.049,0.003,0.097,0.004,0.146
	c-8.774-2.996-18.172-4.646-27.961-4.646c-47.772,0-86.5,38.728-86.5,86.5c0,20.509,7.152,39.338,19.078,54.164H177.269
	l-28.205,28.205l28.205,28.205h369l-28.205-28.205l28.205-28.205H418.422c4.66-5.793,8.583-12.199,11.641-19.079
	C439.327,426.924,449.332,428.773,459.77,428.773z"/>
</svg>
