<?xml version="1.0" encoding="utf-8"?>
<!-- Generator: Adobe Illustrator 16.0.0, SVG Export Plug-In . SVG Version: 6.00 Build 0)  -->
<!DOCTYPE svg PUBLIC "-//W3C//DTD SVG 1.1//EN" "http://www.w3.org/Graphics/SVG/1.1/DTD/svg11.dtd">
<svg version="1.1" id="Layer_1" xmlns="http://www.w3.org/2000/svg" xmlns:xlink="http://www.w3.org/1999/xlink" x="0px" y="0px"
	 width="792px" height="612px" viewBox="0 0 792 612" enable-background="new 0 0 792 612" xml:space="preserve">
<path fill="#FFFFFF" stroke="#000000" stroke-miterlimit="10" d="M546.27,442.615H364.836c15.49-11.729,26.476-29.072,29.962-49
	c25.861-9.594,45.274-32.425,50.047-60.263c30.096-10.986,51.581-39.863,51.581-73.761c0-37.244-25.945-68.407-60.742-76.458
	c-1.101-5.158-2.709-10.126-4.769-14.854h54.405l-67.395-116.73l-41.319,71.567c-5.685-1.31-11.598-2.024-17.681-2.024
	c-43.354,0-78.5,35.146-78.5,78.5c0,26.278,12.925,49.522,32.75,63.771c-11.784,11.305-20.04,26.243-22.976,43.022
	C260.307,317.476,239,346.246,239,380c0,25.573,12.235,48.283,31.164,62.615h-92.895l-28.205,28.205l28.205,28.205h369
	l-28.205-28.205L546.27,442.615z"/>
</svg>
