<?xml version="1.0" encoding="utf-8"?>
<!-- Generator: Adobe Illustrator 16.0.0, SVG Export Plug-In . SVG Version: 6.00 Build 0)  -->
<!DOCTYPE svg PUBLIC "-//W3C//DTD SVG 1.1//EN" "http://www.w3.org/Graphics/SVG/1.1/DTD/svg11.dtd">
<svg version="1.1" id="Layer_1" xmlns="http://www.w3.org/2000/svg" xmlns:xlink="http://www.w3.org/1999/xlink" x="0px" y="0px"
	 width="792px" height="612px" viewBox="0 0 792 612" enable-background="new 0 0 792 612" xml:space="preserve">
<path fill="#FFFFFF" stroke="#000000" stroke-miterlimit="10" d="M418.422,442.615c11.926-14.826,19.078-33.655,19.078-54.164
	c0-0.049-0.004-0.097-0.004-0.146c8.773,2.996,18.172,4.646,27.96,4.646c47.772,0,86.501-38.727,86.501-86.5
	c0-32.943-18.42-61.58-45.52-76.187c23.95-15.382,39.832-42.234,39.832-72.813c0-47.771-38.729-86.5-86.5-86.5
	c-43.71,0-79.826,32.427-85.657,74.531l-0.843-1.708l-24.751,50.152l-55.347,8.042l40.049,39.038l-9.455,55.123l49.503-26.025
	L384.485,276c-3.565,9.474-5.529,19.731-5.529,30.451c0,0.049,0.003,0.097,0.004,0.146c-8.774-2.996-18.172-4.646-27.961-4.646
	c-47.772,0-86.5,38.728-86.5,86.5c0,20.509,7.152,39.338,19.078,54.164H177.269l-28.205,28.205l28.205,28.205h369l-28.205-28.205
	l28.205-28.205H418.422z"/>
</svg>
