<?xml version="1.0" encoding="utf-8"?>
<!-- Generator: Adobe Illustrator 16.0.0, SVG Export Plug-In . SVG Version: 6.00 Build 0)  -->
<!DOCTYPE svg PUBLIC "-//W3C//DTD SVG 1.1//EN" "http://www.w3.org/Graphics/SVG/1.1/DTD/svg11.dtd">
<svg version="1.1" id="Layer_1" xmlns="http://www.w3.org/2000/svg" xmlns:xlink="http://www.w3.org/1999/xlink" x="0px" y="0px"
	 width="792px" height="612px" viewBox="0 0 792 612" enable-background="new 0 0 792 612" xml:space="preserve">
<path fill="#FFFFFF" stroke="#000000" stroke-miterlimit="10" d="M546.27,205.936H382.5v86.58c-9.113-3.043-18.863-4.695-29-4.695
	l0,0v0c0-50.533-40.966-91.5-91.5-91.5s-91.5,40.966-91.5,91.5c0,50.535,40.966,91.5,91.5,91.5c0,24.561,9.678,46.859,25.427,63.295
	H177.269l-28.205,28.205l28.205,28.205h369l-28.205-28.205l28.205-28.205H419.573C435.321,426.18,445,403.881,445,379.32
	c0-3.248-0.172-6.455-0.502-9.615H546.27V205.936z"/>
</svg>
